<svg xmlns="http://www.w3.org/2000/svg" xmlns:xlink="http://www.w3.org/1999/xlink" width="900" zoomAndPan="magnify" viewBox="0 0 675 149.999998" height="200" preserveAspectRatio="xMidYMid meet" version="1.0"><defs><g/><clipPath id="fba7269f5e"><path d="M 7.515625 14.574219 L 126.015625 14.574219 L 126.015625 133.074219 L 7.515625 133.074219 Z M 7.515625 14.574219 " clip-rule="nonzero"/></clipPath></defs><path stroke-linecap="butt" transform="matrix(0.000000000000000046, -0.750847, 0.75, 0.000000000000000046, 135.77263, 140.794388)" fill="none" stroke-linejoin="miter" d="M 0.00189045 2.501077 L 179.798774 2.501077 " stroke="#ffffff" stroke-width="5" stroke-opacity="1" stroke-miterlimit="4"/><path fill="#d4ff00" d="M 109.070312 94.992188 L 80.171875 60.257812 C 79.785156 59.792969 79.207031 59.523438 78.601562 59.523438 C 77.996094 59.523438 77.417969 59.792969 77.03125 60.257812 L 70.949219 67.566406 L 56.367188 50.042969 C 55.59375 49.109375 54.003906 49.109375 53.230469 50.042969 L 24.332031 84.777344 C 23.609375 85.644531 23.726562 86.933594 24.59375 87.652344 C 24.980469 87.972656 25.441406 88.128906 25.902344 88.128906 C 26.492188 88.128906 27.070312 87.875 27.476562 87.390625 L 54.800781 54.546875 L 68.292969 70.761719 L 48.132812 94.992188 C 47.40625 95.859375 47.527344 97.148438 48.394531 97.871094 C 48.777344 98.1875 49.242188 98.34375 49.699219 98.34375 C 50.285156 98.34375 50.867188 98.09375 51.269531 97.609375 L 78.601562 64.761719 L 105.929688 97.609375 C 106.652344 98.472656 107.9375 98.589844 108.808594 97.871094 C 109.671875 97.148438 109.792969 95.859375 109.070312 94.992188 Z M 109.070312 94.992188 " fill-opacity="1" fill-rule="nonzero"/><g clip-path="url(#fba7269f5e)"><path fill="#d4ff00" d="M 66.765625 14.574219 C 34.09375 14.574219 7.515625 41.15625 7.515625 73.824219 C 7.515625 106.496094 34.09375 133.074219 66.765625 133.074219 C 99.4375 133.074219 126.015625 106.496094 126.015625 73.824219 C 126.015625 41.15625 99.4375 14.574219 66.765625 14.574219 Z M 66.765625 128.988281 C 36.347656 128.988281 11.601562 104.242188 11.601562 73.824219 C 11.601562 43.40625 36.347656 18.664062 66.765625 18.664062 C 97.183594 18.664062 121.929688 43.40625 121.929688 73.824219 C 121.929688 104.242188 97.183594 128.988281 66.765625 128.988281 Z M 66.765625 128.988281 " fill-opacity="1" fill-rule="nonzero"/></g><g fill="#ffffff" fill-opacity="1"><g transform="translate(149.793952, 89.093376)"><g><path d="M 19.015625 0.796875 L 16.46875 0.796875 L 6.0625 -32.5 C 5.832031 -33.132812 5.582031 -33.800781 5.3125 -34.5 C 5.050781 -35.195312 4.703125 -35.847656 4.265625 -36.453125 C 3.835938 -37.054688 3.28125 -37.578125 2.59375 -38.015625 C 1.914062 -38.453125 1.050781 -38.722656 0 -38.828125 L 0 -39.625 L 12.28125 -39.625 L 12.28125 -38.828125 C 11.5625 -38.753906 10.945312 -38.484375 10.4375 -38.015625 C 9.9375 -37.546875 9.6875 -36.835938 9.6875 -35.890625 C 9.6875 -35.328125 9.796875 -34.648438 10.015625 -33.859375 L 19.1875 -5.484375 L 26.046875 -26.546875 L 23.890625 -33.796875 C 23.734375 -34.285156 23.550781 -34.800781 23.34375 -35.34375 C 23.144531 -35.894531 22.863281 -36.40625 22.5 -36.875 C 22.144531 -37.351562 21.664062 -37.769531 21.0625 -38.125 C 20.457031 -38.488281 19.679688 -38.722656 18.734375 -38.828125 L 18.734375 -39.625 L 31.1875 -39.625 L 31.1875 -38.828125 C 30.207031 -38.828125 29.414062 -38.550781 28.8125 -38 C 28.207031 -37.457031 27.90625 -36.753906 27.90625 -35.890625 C 27.90625 -35.585938 27.941406 -35.226562 28.015625 -34.8125 C 28.097656 -34.394531 28.175781 -34.054688 28.25 -33.796875 L 36.796875 -5.484375 L 45.859375 -33.34375 C 45.929688 -33.53125 46.015625 -33.867188 46.109375 -34.359375 C 46.203125 -34.847656 46.25 -35.1875 46.25 -35.375 L 46.25 -35.4375 C 46.25 -35.582031 46.226562 -35.832031 46.1875 -36.1875 C 46.15625 -36.550781 46.035156 -36.910156 45.828125 -37.265625 C 45.617188 -37.628906 45.304688 -37.960938 44.890625 -38.265625 C 44.472656 -38.566406 43.890625 -38.753906 43.140625 -38.828125 L 43.140625 -39.625 L 52.703125 -39.625 L 52.703125 -38.828125 C 51.953125 -38.679688 51.320312 -38.425781 50.8125 -38.0625 C 50.300781 -37.707031 49.875 -37.285156 49.53125 -36.796875 C 49.195312 -36.304688 48.914062 -35.773438 48.6875 -35.203125 C 48.457031 -34.640625 48.25 -34.078125 48.0625 -33.515625 L 36.625 0.796875 L 34.078125 0.796875 L 26.828125 -23.65625 Z M 19.015625 0.796875 "/></g></g></g><g fill="#ffffff" fill-opacity="1"><g transform="translate(209.227163, 89.093376)"><g><path d="M 15.734375 -39.625 L 15.734375 -38.828125 C 14.679688 -38.722656 13.867188 -38.460938 13.296875 -38.046875 C 12.734375 -37.628906 12.3125 -37.144531 12.03125 -36.59375 C 11.75 -36.050781 11.578125 -35.46875 11.515625 -34.84375 C 11.460938 -34.21875 11.4375 -33.660156 11.4375 -33.171875 L 11.4375 -6.453125 C 11.4375 -5.921875 11.460938 -5.351562 11.515625 -4.75 C 11.578125 -4.144531 11.75 -3.566406 12.03125 -3.015625 C 12.3125 -2.472656 12.734375 -1.992188 13.296875 -1.578125 C 13.867188 -1.171875 14.679688 -0.910156 15.734375 -0.796875 L 15.734375 0 L 2.828125 0 L 2.828125 -0.796875 C 3.890625 -0.910156 4.703125 -1.171875 5.265625 -1.578125 C 5.828125 -1.992188 6.25 -2.472656 6.53125 -3.015625 C 6.820312 -3.566406 6.992188 -4.144531 7.046875 -4.75 C 7.097656 -5.351562 7.125 -5.921875 7.125 -6.453125 L 7.125 -33.171875 C 7.125 -33.660156 7.097656 -34.21875 7.046875 -34.84375 C 6.992188 -35.46875 6.820312 -36.050781 6.53125 -36.59375 C 6.25 -37.144531 5.828125 -37.628906 5.265625 -38.046875 C 4.703125 -38.460938 3.890625 -38.722656 2.828125 -38.828125 L 2.828125 -39.625 Z M 15.734375 -39.625 "/></g></g></g><g fill="#ffffff" fill-opacity="1"><g transform="translate(235.095633, 89.093376)"><g><path d="M 15.734375 -39.625 L 15.734375 -38.828125 C 14.679688 -38.722656 13.867188 -38.460938 13.296875 -38.046875 C 12.734375 -37.628906 12.3125 -37.144531 12.03125 -36.59375 C 11.75 -36.050781 11.578125 -35.46875 11.515625 -34.84375 C 11.460938 -34.21875 11.4375 -33.660156 11.4375 -33.171875 L 11.4375 -6.453125 C 11.4375 -5.773438 11.453125 -5.148438 11.484375 -4.578125 C 11.523438 -4.015625 11.640625 -3.515625 11.828125 -3.078125 C 12.015625 -2.648438 12.332031 -2.3125 12.78125 -2.0625 C 13.238281 -1.820312 13.90625 -1.703125 14.78125 -1.703125 L 22.1875 -1.703125 C 22.675781 -1.703125 23.34375 -1.726562 24.1875 -1.78125 C 25.039062 -1.84375 25.941406 -2.070312 26.890625 -2.46875 C 27.835938 -2.863281 28.78125 -3.484375 29.71875 -4.328125 C 30.664062 -5.179688 31.476562 -6.398438 32.15625 -7.984375 L 33.0625 -7.984375 L 31.703125 0 L 2.828125 0 L 2.828125 -0.796875 C 3.890625 -0.910156 4.703125 -1.171875 5.265625 -1.578125 C 5.828125 -1.992188 6.25 -2.472656 6.53125 -3.015625 C 6.820312 -3.566406 6.992188 -4.144531 7.046875 -4.75 C 7.097656 -5.351562 7.125 -5.921875 7.125 -6.453125 L 7.125 -33.171875 C 7.125 -33.660156 7.097656 -34.21875 7.046875 -34.84375 C 6.992188 -35.46875 6.820312 -36.050781 6.53125 -36.59375 C 6.25 -37.144531 5.828125 -37.628906 5.265625 -38.046875 C 4.703125 -38.460938 3.890625 -38.722656 2.828125 -38.828125 L 2.828125 -39.625 Z M 15.734375 -39.625 "/></g></g></g><g fill="#ffffff" fill-opacity="1"><g transform="translate(276.86914, 89.093376)"><g><path d="M 15.734375 -39.625 L 15.734375 -38.828125 C 14.679688 -38.722656 13.867188 -38.460938 13.296875 -38.046875 C 12.734375 -37.628906 12.3125 -37.144531 12.03125 -36.59375 C 11.75 -36.050781 11.578125 -35.46875 11.515625 -34.84375 C 11.460938 -34.21875 11.4375 -33.660156 11.4375 -33.171875 L 11.4375 -6.453125 C 11.4375 -5.773438 11.453125 -5.148438 11.484375 -4.578125 C 11.523438 -4.015625 11.640625 -3.515625 11.828125 -3.078125 C 12.015625 -2.648438 12.332031 -2.3125 12.78125 -2.0625 C 13.238281 -1.820312 13.90625 -1.703125 14.78125 -1.703125 L 22.1875 -1.703125 C 22.675781 -1.703125 23.34375 -1.726562 24.1875 -1.78125 C 25.039062 -1.84375 25.941406 -2.070312 26.890625 -2.46875 C 27.835938 -2.863281 28.78125 -3.484375 29.71875 -4.328125 C 30.664062 -5.179688 31.476562 -6.398438 32.15625 -7.984375 L 33.0625 -7.984375 L 31.703125 0 L 2.828125 0 L 2.828125 -0.796875 C 3.890625 -0.910156 4.703125 -1.171875 5.265625 -1.578125 C 5.828125 -1.992188 6.25 -2.472656 6.53125 -3.015625 C 6.820312 -3.566406 6.992188 -4.144531 7.046875 -4.75 C 7.097656 -5.351562 7.125 -5.921875 7.125 -6.453125 L 7.125 -33.171875 C 7.125 -33.660156 7.097656 -34.21875 7.046875 -34.84375 C 6.992188 -35.46875 6.820312 -36.050781 6.53125 -36.59375 C 6.25 -37.144531 5.828125 -37.628906 5.265625 -38.046875 C 4.703125 -38.460938 3.890625 -38.722656 2.828125 -38.828125 L 2.828125 -39.625 Z M 15.734375 -39.625 "/></g></g></g><g fill="#ffffff" fill-opacity="1"><g transform="translate(318.642659, 89.093376)"><g><path d="M 15.734375 -39.625 L 15.734375 -38.828125 C 14.679688 -38.722656 13.867188 -38.460938 13.296875 -38.046875 C 12.734375 -37.628906 12.3125 -37.144531 12.03125 -36.59375 C 11.75 -36.050781 11.578125 -35.46875 11.515625 -34.84375 C 11.460938 -34.21875 11.4375 -33.660156 11.4375 -33.171875 L 11.4375 -6.453125 C 11.4375 -5.921875 11.460938 -5.351562 11.515625 -4.75 C 11.578125 -4.144531 11.75 -3.566406 12.03125 -3.015625 C 12.3125 -2.472656 12.734375 -1.992188 13.296875 -1.578125 C 13.867188 -1.171875 14.679688 -0.910156 15.734375 -0.796875 L 15.734375 0 L 2.828125 0 L 2.828125 -0.796875 C 3.890625 -0.910156 4.703125 -1.171875 5.265625 -1.578125 C 5.828125 -1.992188 6.25 -2.472656 6.53125 -3.015625 C 6.820312 -3.566406 6.992188 -4.144531 7.046875 -4.75 C 7.097656 -5.351562 7.125 -5.921875 7.125 -6.453125 L 7.125 -33.171875 C 7.125 -33.660156 7.097656 -34.21875 7.046875 -34.84375 C 6.992188 -35.46875 6.820312 -36.050781 6.53125 -36.59375 C 6.25 -37.144531 5.828125 -37.628906 5.265625 -38.046875 C 4.703125 -38.460938 3.890625 -38.722656 2.828125 -38.828125 L 2.828125 -39.625 Z M 15.734375 -39.625 "/></g></g></g><g fill="#ffffff" fill-opacity="1"><g transform="translate(344.511134, 89.093376)"><g><path d="M 31.3125 -6 C 31.34375 -5.851562 31.460938 -5.503906 31.671875 -4.953125 C 31.878906 -4.398438 32.195312 -3.820312 32.625 -3.21875 C 33.0625 -2.625 33.628906 -2.078125 34.328125 -1.578125 C 35.023438 -1.085938 35.882812 -0.828125 36.90625 -0.796875 L 36.90625 0 L 23.265625 0 L 23.265625 -0.796875 L 23.953125 -0.796875 C 24.929688 -0.796875 25.710938 -1.066406 26.296875 -1.609375 C 26.878906 -2.160156 27.171875 -2.847656 27.171875 -3.671875 C 27.171875 -3.941406 27.125 -4.242188 27.03125 -4.578125 C 26.9375 -4.921875 26.851562 -5.207031 26.78125 -5.4375 L 24.796875 -12.234375 L 9.28125 -12.234375 L 7.1875 -5.609375 C 7.144531 -5.523438 7.085938 -5.304688 7.015625 -4.953125 C 6.941406 -4.597656 6.90625 -4.269531 6.90625 -3.96875 C 6.90625 -3.28125 7.117188 -2.578125 7.546875 -1.859375 C 7.984375 -1.148438 8.804688 -0.796875 10.015625 -0.796875 L 10.015625 0 L -0.5625 0 L -0.5625 -0.796875 C 0.457031 -0.910156 1.304688 -1.171875 1.984375 -1.578125 C 2.660156 -1.992188 3.207031 -2.457031 3.625 -2.96875 C 4.039062 -3.476562 4.351562 -3.957031 4.5625 -4.40625 C 4.769531 -4.863281 4.910156 -5.1875 4.984375 -5.375 L 14.484375 -31.921875 C 14.566406 -32.109375 14.65625 -32.378906 14.75 -32.734375 C 14.84375 -33.097656 14.890625 -33.394531 14.890625 -33.625 C 14.890625 -34.269531 14.671875 -34.722656 14.234375 -34.984375 C 13.804688 -35.242188 13.289062 -35.394531 12.6875 -35.4375 L 11.65625 -35.4375 L 11.65625 -36.34375 C 13.25 -36.53125 14.570312 -37.078125 15.625 -37.984375 C 16.675781 -38.890625 17.375 -40.0625 17.71875 -41.5 L 20.203125 -41.5 Z M 9.90625 -13.921875 L 24.109375 -13.921875 L 17.546875 -35.21875 Z M 9.90625 -13.921875 "/></g></g></g><g fill="#ffffff" fill-opacity="1"><g transform="translate(387.586487, 89.093376)"><g><path d="M 26.4375 -11.09375 L 37.46875 -39.625 L 46.640625 -39.625 L 46.640625 -38.828125 C 45.816406 -38.753906 45.148438 -38.613281 44.640625 -38.40625 C 44.128906 -38.195312 43.726562 -37.941406 43.4375 -37.640625 C 43.15625 -37.335938 42.96875 -37.003906 42.875 -36.640625 C 42.78125 -36.285156 42.734375 -35.921875 42.734375 -35.546875 C 42.734375 -35.242188 42.753906 -34.960938 42.796875 -34.703125 C 42.835938 -34.441406 42.875 -34.210938 42.90625 -34.015625 L 47.609375 -5.71875 C 47.835938 -4.320312 48.410156 -3.179688 49.328125 -2.296875 C 50.253906 -1.410156 51.398438 -0.910156 52.765625 -0.796875 L 52.765625 0 L 38.71875 0 L 38.71875 -0.796875 L 39.234375 -0.734375 C 40.210938 -0.734375 41.097656 -1.023438 41.890625 -1.609375 C 42.679688 -2.191406 43.078125 -3.050781 43.078125 -4.1875 C 43.078125 -4.5625 43.019531 -5.03125 42.90625 -5.59375 C 42.789062 -6.164062 42.695312 -6.675781 42.625 -7.125 L 38.046875 -34.984375 L 26.046875 -4.296875 L 24.34375 -4.296875 L 13.359375 -34.015625 L 7.8125 -6.734375 C 7.738281 -6.472656 7.671875 -6.066406 7.609375 -5.515625 C 7.554688 -4.972656 7.53125 -4.566406 7.53125 -4.296875 C 7.53125 -3.660156 7.679688 -3.125 7.984375 -2.6875 C 8.285156 -2.25 8.660156 -1.898438 9.109375 -1.640625 C 9.566406 -1.378906 10.039062 -1.179688 10.53125 -1.046875 C 11.019531 -0.910156 11.472656 -0.828125 11.890625 -0.796875 L 11.890625 0 L 0.96875 0 L 0.96875 -0.796875 C 2.394531 -0.867188 3.484375 -1.359375 4.234375 -2.265625 C 4.992188 -3.171875 5.523438 -4.414062 5.828125 -6 L 11.203125 -32.78125 C 11.285156 -33.195312 11.332031 -33.554688 11.34375 -33.859375 C 11.363281 -34.160156 11.375 -34.515625 11.375 -34.921875 C 11.375 -35.117188 11.34375 -35.421875 11.28125 -35.828125 C 11.226562 -36.242188 11.078125 -36.660156 10.828125 -37.078125 C 10.585938 -37.492188 10.191406 -37.867188 9.640625 -38.203125 C 9.097656 -38.546875 8.316406 -38.753906 7.296875 -38.828125 L 7.296875 -39.625 L 16.53125 -39.625 Z M 26.4375 -11.09375 "/></g></g></g><g fill="#ffffff" fill-opacity="1"><g transform="translate(448.60455, 89.093376)"><g/></g></g><g fill="#ffffff" fill-opacity="1"><g transform="translate(469.095882, 89.093376)"><g><path d="M 32.265625 -39.625 L 33.515625 -31.875 L 32.265625 -31.875 C 32.078125 -32.507812 31.773438 -33.175781 31.359375 -33.875 C 30.941406 -34.570312 30.453125 -35.1875 29.890625 -35.71875 C 29.242188 -36.320312 28.410156 -36.835938 27.390625 -37.265625 C 26.378906 -37.703125 25.269531 -37.921875 24.0625 -37.921875 L 15 -37.921875 C 13.90625 -37.921875 13.035156 -37.609375 12.390625 -36.984375 C 11.753906 -36.367188 11.4375 -35.457031 11.4375 -34.25 L 11.4375 -22.46875 L 21.28125 -22.46875 C 21.8125 -22.46875 22.453125 -22.550781 23.203125 -22.71875 C 23.960938 -22.894531 24.585938 -23.359375 25.078125 -24.109375 C 25.304688 -24.410156 25.457031 -24.75 25.53125 -25.125 C 25.601562 -25.507812 25.640625 -25.867188 25.640625 -26.203125 L 25.640625 -26.546875 L 26.546875 -26.546875 L 26.546875 -16.53125 L 25.640625 -16.53125 L 25.703125 -17.046875 C 25.703125 -17.796875 25.492188 -18.492188 25.078125 -19.140625 C 24.585938 -19.890625 23.960938 -20.347656 23.203125 -20.515625 C 22.453125 -20.691406 21.8125 -20.78125 21.28125 -20.78125 L 11.4375 -20.78125 L 11.4375 -6.453125 C 11.4375 -5.921875 11.460938 -5.351562 11.515625 -4.75 C 11.578125 -4.144531 11.75 -3.566406 12.03125 -3.015625 C 12.3125 -2.472656 12.734375 -1.992188 13.296875 -1.578125 C 13.867188 -1.171875 14.679688 -0.910156 15.734375 -0.796875 L 15.734375 0 L 2.828125 0 L 2.828125 -0.796875 C 3.890625 -0.867188 4.703125 -1.101562 5.265625 -1.5 C 5.828125 -1.894531 6.25 -2.363281 6.53125 -2.90625 C 6.820312 -3.457031 6.992188 -4.046875 7.046875 -4.671875 C 7.097656 -5.296875 7.125 -5.890625 7.125 -6.453125 L 7.125 -33.171875 C 7.125 -33.703125 7.097656 -34.273438 7.046875 -34.890625 C 6.992188 -35.515625 6.832031 -36.097656 6.5625 -36.640625 C 6.300781 -37.191406 5.878906 -37.664062 5.296875 -38.0625 C 4.710938 -38.46875 3.890625 -38.722656 2.828125 -38.828125 L 2.828125 -39.625 Z M 32.265625 -39.625 "/></g></g></g><g fill="#ffffff" fill-opacity="1"><g transform="translate(510.190171, 89.093376)"><g><path d="M 15.734375 -39.625 L 15.734375 -38.828125 C 14.679688 -38.722656 13.867188 -38.460938 13.296875 -38.046875 C 12.734375 -37.628906 12.3125 -37.144531 12.03125 -36.59375 C 11.75 -36.050781 11.578125 -35.46875 11.515625 -34.84375 C 11.460938 -34.21875 11.4375 -33.660156 11.4375 -33.171875 L 11.4375 -6.453125 C 11.4375 -5.921875 11.460938 -5.351562 11.515625 -4.75 C 11.578125 -4.144531 11.75 -3.566406 12.03125 -3.015625 C 12.3125 -2.472656 12.734375 -1.992188 13.296875 -1.578125 C 13.867188 -1.171875 14.679688 -0.910156 15.734375 -0.796875 L 15.734375 0 L 2.828125 0 L 2.828125 -0.796875 C 3.890625 -0.910156 4.703125 -1.171875 5.265625 -1.578125 C 5.828125 -1.992188 6.25 -2.472656 6.53125 -3.015625 C 6.820312 -3.566406 6.992188 -4.144531 7.046875 -4.75 C 7.097656 -5.351562 7.125 -5.921875 7.125 -6.453125 L 7.125 -33.171875 C 7.125 -33.660156 7.097656 -34.21875 7.046875 -34.84375 C 6.992188 -35.46875 6.820312 -36.050781 6.53125 -36.59375 C 6.25 -37.144531 5.828125 -37.628906 5.265625 -38.046875 C 4.703125 -38.460938 3.890625 -38.722656 2.828125 -38.828125 L 2.828125 -39.625 Z M 15.734375 -39.625 "/></g></g></g><g fill="#ffffff" fill-opacity="1"><g transform="translate(536.058624, 89.093376)"><g><path d="M 31.703125 -39.625 L 32.953125 -31.875 L 31.703125 -31.875 C 31.472656 -32.394531 31.140625 -33.03125 30.703125 -33.78125 C 30.273438 -34.539062 29.773438 -35.1875 29.203125 -35.71875 C 28.566406 -36.320312 27.753906 -36.835938 26.765625 -37.265625 C 25.785156 -37.703125 24.695312 -37.921875 23.5 -37.921875 L 15 -37.921875 C 13.90625 -37.921875 13.035156 -37.609375 12.390625 -36.984375 C 11.753906 -36.367188 11.4375 -35.457031 11.4375 -34.25 L 11.4375 -22.46875 L 22.359375 -22.46875 C 22.890625 -22.46875 23.53125 -22.550781 24.28125 -22.71875 C 25.039062 -22.894531 25.664062 -23.359375 26.15625 -24.109375 C 26.382812 -24.410156 26.535156 -24.75 26.609375 -25.125 C 26.679688 -25.507812 26.71875 -25.867188 26.71875 -26.203125 L 26.71875 -26.546875 L 27.625 -26.546875 L 27.625 -16.703125 L 26.71875 -16.703125 L 26.71875 -17.046875 C 26.71875 -17.378906 26.679688 -17.734375 26.609375 -18.109375 C 26.535156 -18.492188 26.382812 -18.835938 26.15625 -19.140625 C 25.664062 -19.890625 25.039062 -20.347656 24.28125 -20.515625 C 23.53125 -20.691406 22.890625 -20.78125 22.359375 -20.78125 L 11.4375 -20.78125 L 11.4375 -5.203125 C 11.4375 -5.015625 11.460938 -4.734375 11.515625 -4.359375 C 11.578125 -3.984375 11.726562 -3.597656 11.96875 -3.203125 C 12.21875 -2.804688 12.601562 -2.457031 13.125 -2.15625 C 13.65625 -1.851562 14.410156 -1.703125 15.390625 -1.703125 L 23.4375 -1.703125 C 24 -1.703125 24.695312 -1.726562 25.53125 -1.78125 C 26.363281 -1.84375 27.238281 -2.070312 28.15625 -2.46875 C 29.082031 -2.863281 30 -3.484375 30.90625 -4.328125 C 31.8125 -5.179688 32.644531 -6.398438 33.40625 -7.984375 L 34.3125 -7.984375 L 32.953125 0 L 2.828125 0 L 2.828125 -0.796875 C 3.890625 -0.910156 4.710938 -1.164062 5.296875 -1.5625 C 5.878906 -1.957031 6.300781 -2.425781 6.5625 -2.96875 C 6.832031 -3.519531 6.992188 -4.101562 7.046875 -4.71875 C 7.097656 -5.34375 7.125 -5.921875 7.125 -6.453125 L 7.125 -33.171875 C 7.125 -33.703125 7.097656 -34.273438 7.046875 -34.890625 C 6.992188 -35.515625 6.832031 -36.097656 6.5625 -36.640625 C 6.300781 -37.191406 5.878906 -37.664062 5.296875 -38.0625 C 4.710938 -38.46875 3.890625 -38.722656 2.828125 -38.828125 L 2.828125 -39.625 Z M 31.703125 -39.625 "/></g></g></g><g fill="#ffffff" fill-opacity="1"><g transform="translate(579.926388, 89.093376)"><g><path d="M 15.734375 -39.625 L 15.734375 -38.828125 C 14.679688 -38.722656 13.867188 -38.460938 13.296875 -38.046875 C 12.734375 -37.628906 12.3125 -37.144531 12.03125 -36.59375 C 11.75 -36.050781 11.578125 -35.46875 11.515625 -34.84375 C 11.460938 -34.21875 11.4375 -33.660156 11.4375 -33.171875 L 11.4375 -6.453125 C 11.4375 -5.773438 11.453125 -5.148438 11.484375 -4.578125 C 11.523438 -4.015625 11.640625 -3.515625 11.828125 -3.078125 C 12.015625 -2.648438 12.332031 -2.3125 12.78125 -2.0625 C 13.238281 -1.820312 13.90625 -1.703125 14.78125 -1.703125 L 22.1875 -1.703125 C 22.675781 -1.703125 23.34375 -1.726562 24.1875 -1.78125 C 25.039062 -1.84375 25.941406 -2.070312 26.890625 -2.46875 C 27.835938 -2.863281 28.78125 -3.484375 29.71875 -4.328125 C 30.664062 -5.179688 31.476562 -6.398438 32.15625 -7.984375 L 33.0625 -7.984375 L 31.703125 0 L 2.828125 0 L 2.828125 -0.796875 C 3.890625 -0.910156 4.703125 -1.171875 5.265625 -1.578125 C 5.828125 -1.992188 6.25 -2.472656 6.53125 -3.015625 C 6.820312 -3.566406 6.992188 -4.144531 7.046875 -4.75 C 7.097656 -5.351562 7.125 -5.921875 7.125 -6.453125 L 7.125 -33.171875 C 7.125 -33.660156 7.097656 -34.21875 7.046875 -34.84375 C 6.992188 -35.46875 6.820312 -36.050781 6.53125 -36.59375 C 6.25 -37.144531 5.828125 -37.628906 5.265625 -38.046875 C 4.703125 -38.460938 3.890625 -38.722656 2.828125 -38.828125 L 2.828125 -39.625 Z M 15.734375 -39.625 "/></g></g></g><g fill="#ffffff" fill-opacity="1"><g transform="translate(621.699884, 89.093376)"><g><path d="M 18.796875 -39.625 C 19.515625 -39.625 20.410156 -39.585938 21.484375 -39.515625 C 22.554688 -39.441406 23.710938 -39.253906 24.953125 -38.953125 C 26.203125 -38.648438 27.5 -38.195312 28.84375 -37.59375 C 30.1875 -36.988281 31.476562 -36.175781 32.71875 -35.15625 C 34.875 -33.414062 36.550781 -31.195312 37.75 -28.5 C 38.957031 -25.800781 39.5625 -22.695312 39.5625 -19.1875 C 39.5625 -16.65625 39.144531 -14.320312 38.3125 -12.1875 C 37.488281 -10.0625 36.398438 -8.207031 35.046875 -6.625 C 33.835938 -5.1875 32.550781 -4.035156 31.1875 -3.171875 C 29.832031 -2.304688 28.4375 -1.632812 27 -1.15625 C 25.5625 -0.6875 24.132812 -0.375 22.71875 -0.21875 C 21.3125 -0.0703125 19.945312 0 18.625 0 L 2.828125 0 L 2.828125 -0.796875 C 3.890625 -0.910156 4.710938 -1.164062 5.296875 -1.5625 C 5.878906 -1.957031 6.300781 -2.425781 6.5625 -2.96875 C 6.832031 -3.519531 6.992188 -4.101562 7.046875 -4.71875 C 7.097656 -5.34375 7.125 -5.921875 7.125 -6.453125 L 7.125 -33.171875 C 7.125 -33.660156 7.097656 -34.21875 7.046875 -34.84375 C 6.992188 -35.46875 6.820312 -36.050781 6.53125 -36.59375 C 6.25 -37.144531 5.828125 -37.628906 5.265625 -38.046875 C 4.703125 -38.460938 3.890625 -38.722656 2.828125 -38.828125 L 2.828125 -39.625 Z M 11.4375 -6.171875 C 11.4375 -5.078125 11.566406 -4.226562 11.828125 -3.625 C 12.097656 -3.019531 12.445312 -2.578125 12.875 -2.296875 C 13.3125 -2.015625 13.8125 -1.84375 14.375 -1.78125 C 14.945312 -1.726562 15.515625 -1.703125 16.078125 -1.703125 L 20.890625 -1.703125 C 21.753906 -1.703125 22.640625 -1.832031 23.546875 -2.09375 C 24.453125 -2.351562 25.328125 -2.707031 26.171875 -3.15625 C 27.023438 -3.613281 27.816406 -4.132812 28.546875 -4.71875 C 29.285156 -5.3125 29.921875 -5.945312 30.453125 -6.625 C 31.359375 -7.757812 32.078125 -9.003906 32.609375 -10.359375 C 33.140625 -11.710938 33.523438 -13.039062 33.765625 -14.34375 C 34.015625 -15.644531 34.175781 -16.863281 34.25 -18 C 34.320312 -19.132812 34.359375 -20.019531 34.359375 -20.65625 C 34.359375 -22.882812 34.128906 -24.816406 33.671875 -26.453125 C 33.222656 -28.097656 32.660156 -29.515625 31.984375 -30.703125 C 31.304688 -31.898438 30.539062 -32.882812 29.6875 -33.65625 C 28.84375 -34.425781 28.023438 -35.054688 27.234375 -35.546875 C 25.941406 -36.304688 24.515625 -36.890625 22.953125 -37.296875 C 21.390625 -37.710938 19.945312 -37.921875 18.625 -37.921875 L 15.796875 -37.921875 C 14.703125 -37.921875 13.859375 -37.796875 13.265625 -37.546875 C 12.679688 -37.304688 12.257812 -37.003906 12 -36.640625 C 11.738281 -36.285156 11.578125 -35.898438 11.515625 -35.484375 C 11.460938 -35.078125 11.4375 -34.6875 11.4375 -34.3125 Z M 11.4375 -6.171875 "/></g></g></g><g fill="#d4ff00" fill-opacity="1"><g transform="translate(183.986582, 113.674068)"><g><path d="M 29.953125 -18.375 L 23.9375 0 L 19.375 0 L 15.328125 -12.4375 L 11.15625 0 L 6.609375 0 L 0.578125 -18.375 L 4.984375 -18.375 L 9.140625 -5.453125 L 13.46875 -18.375 L 17.40625 -18.375 L 21.609375 -5.359375 L 25.875 -18.375 Z M 29.953125 -18.375 "/></g></g></g><g fill="#d4ff00" fill-opacity="1"><g transform="translate(228.719492, 113.674068)"><g><path d="M 16.40625 -3.40625 L 16.40625 0 L 2.171875 0 L 2.171875 -18.375 L 16.0625 -18.375 L 16.0625 -14.96875 L 6.40625 -14.96875 L 6.40625 -10.96875 L 14.9375 -10.96875 L 14.9375 -7.671875 L 6.40625 -7.671875 L 6.40625 -3.40625 Z M 16.40625 -3.40625 "/></g></g></g><g fill="#d4ff00" fill-opacity="1"><g transform="translate(260.537378, 113.674068)"><g><path d="M 15.671875 -9.5625 C 16.722656 -9.226562 17.546875 -8.671875 18.140625 -7.890625 C 18.734375 -7.109375 19.03125 -6.148438 19.03125 -5.015625 C 19.03125 -3.398438 18.40625 -2.160156 17.15625 -1.296875 C 15.90625 -0.429688 14.082031 0 11.6875 0 L 2.171875 0 L 2.171875 -18.375 L 11.15625 -18.375 C 13.394531 -18.375 15.113281 -17.941406 16.3125 -17.078125 C 17.507812 -16.222656 18.109375 -15.0625 18.109375 -13.59375 C 18.109375 -12.707031 17.894531 -11.910156 17.46875 -11.203125 C 17.039062 -10.503906 16.441406 -9.957031 15.671875 -9.5625 Z M 6.40625 -15.171875 L 6.40625 -10.84375 L 10.625 -10.84375 C 11.675781 -10.84375 12.472656 -11.023438 13.015625 -11.390625 C 13.554688 -11.753906 13.828125 -12.296875 13.828125 -13.015625 C 13.828125 -13.734375 13.554688 -14.269531 13.015625 -14.625 C 12.472656 -14.988281 11.675781 -15.171875 10.625 -15.171875 Z M 11.359375 -3.203125 C 12.484375 -3.203125 13.328125 -3.382812 13.890625 -3.75 C 14.460938 -4.125 14.75 -4.691406 14.75 -5.453125 C 14.75 -6.984375 13.617188 -7.75 11.359375 -7.75 L 6.40625 -7.75 L 6.40625 -3.203125 Z M 11.359375 -3.203125 "/></g></g></g><g fill="#d4ff00" fill-opacity="1"><g transform="translate(294.822765, 113.674068)"><g/></g></g><g fill="#d4ff00" fill-opacity="1"><g transform="translate(316.455622, 113.674068)"><g><path d="M 2.171875 -18.375 L 10.53125 -18.375 C 12.519531 -18.375 14.28125 -17.992188 15.8125 -17.234375 C 17.34375 -16.472656 18.53125 -15.398438 19.375 -14.015625 C 20.226562 -12.628906 20.65625 -11.019531 20.65625 -9.1875 C 20.65625 -7.351562 20.226562 -5.742188 19.375 -4.359375 C 18.53125 -2.972656 17.34375 -1.898438 15.8125 -1.140625 C 14.28125 -0.378906 12.519531 0 10.53125 0 L 2.171875 0 Z M 10.3125 -3.484375 C 12.15625 -3.484375 13.625 -3.992188 14.71875 -5.015625 C 15.8125 -6.046875 16.359375 -7.4375 16.359375 -9.1875 C 16.359375 -10.9375 15.8125 -12.320312 14.71875 -13.34375 C 13.625 -14.375 12.15625 -14.890625 10.3125 -14.890625 L 6.4375 -14.890625 L 6.4375 -3.484375 Z M 10.3125 -3.484375 "/></g></g></g><g fill="#d4ff00" fill-opacity="1"><g transform="translate(352.342255, 113.674068)"><g><path d="M 16.40625 -3.40625 L 16.40625 0 L 2.171875 0 L 2.171875 -18.375 L 16.0625 -18.375 L 16.0625 -14.96875 L 6.40625 -14.96875 L 6.40625 -10.96875 L 14.9375 -10.96875 L 14.9375 -7.671875 L 6.40625 -7.671875 L 6.40625 -3.40625 Z M 16.40625 -3.40625 "/></g></g></g><g fill="#d4ff00" fill-opacity="1"><g transform="translate(384.160147, 113.674068)"><g><path d="M 19.84375 -18.375 L 11.890625 0 L 7.6875 0 L -0.234375 -18.375 L 4.359375 -18.375 L 9.953125 -5.25 L 15.625 -18.375 Z M 19.84375 -18.375 "/></g></g></g><g fill="#d4ff00" fill-opacity="1"><g transform="translate(417.946789, 113.674068)"><g><path d="M 16.40625 -3.40625 L 16.40625 0 L 2.171875 0 L 2.171875 -18.375 L 16.0625 -18.375 L 16.0625 -14.96875 L 6.40625 -14.96875 L 6.40625 -10.96875 L 14.9375 -10.96875 L 14.9375 -7.671875 L 6.40625 -7.671875 L 6.40625 -3.40625 Z M 16.40625 -3.40625 "/></g></g></g><g fill="#d4ff00" fill-opacity="1"><g transform="translate(449.764682, 113.674068)"><g><path d="M 2.171875 -18.375 L 6.4375 -18.375 L 6.4375 -3.46875 L 15.640625 -3.46875 L 15.640625 0 L 2.171875 0 Z M 2.171875 -18.375 "/></g></g></g><g fill="#d4ff00" fill-opacity="1"><g transform="translate(479.8238, 113.674068)"><g><path d="M 11.078125 0.3125 C 9.171875 0.3125 7.453125 -0.0976562 5.921875 -0.921875 C 4.390625 -1.742188 3.191406 -2.875 2.328125 -4.3125 C 1.460938 -5.757812 1.03125 -7.382812 1.03125 -9.1875 C 1.03125 -10.988281 1.460938 -12.609375 2.328125 -14.046875 C 3.191406 -15.492188 4.390625 -16.628906 5.921875 -17.453125 C 7.453125 -18.273438 9.171875 -18.6875 11.078125 -18.6875 C 12.984375 -18.6875 14.695312 -18.273438 16.21875 -17.453125 C 17.738281 -16.628906 18.9375 -15.492188 19.8125 -14.046875 C 20.6875 -12.609375 21.125 -10.988281 21.125 -9.1875 C 21.125 -7.382812 20.6875 -5.757812 19.8125 -4.3125 C 18.9375 -2.875 17.738281 -1.742188 16.21875 -0.921875 C 14.695312 -0.0976562 12.984375 0.3125 11.078125 0.3125 Z M 11.078125 -3.3125 C 12.160156 -3.3125 13.140625 -3.554688 14.015625 -4.046875 C 14.890625 -4.546875 15.578125 -5.242188 16.078125 -6.140625 C 16.578125 -7.035156 16.828125 -8.050781 16.828125 -9.1875 C 16.828125 -10.320312 16.578125 -11.335938 16.078125 -12.234375 C 15.578125 -13.128906 14.890625 -13.820312 14.015625 -14.3125 C 13.140625 -14.8125 12.160156 -15.0625 11.078125 -15.0625 C 9.992188 -15.0625 9.015625 -14.8125 8.140625 -14.3125 C 7.265625 -13.820312 6.578125 -13.128906 6.078125 -12.234375 C 5.578125 -11.335938 5.328125 -10.320312 5.328125 -9.1875 C 5.328125 -8.050781 5.578125 -7.035156 6.078125 -6.140625 C 6.578125 -5.242188 7.265625 -4.546875 8.140625 -4.046875 C 9.015625 -3.554688 9.992188 -3.3125 11.078125 -3.3125 Z M 11.078125 -3.3125 "/></g></g></g><g fill="#d4ff00" fill-opacity="1"><g transform="translate(516.182936, 113.674068)"><g><path d="M 10.125 -18.375 C 11.757812 -18.375 13.175781 -18.101562 14.375 -17.5625 C 15.570312 -17.019531 16.492188 -16.25 17.140625 -15.25 C 17.785156 -14.25 18.109375 -13.066406 18.109375 -11.703125 C 18.109375 -10.359375 17.785156 -9.179688 17.140625 -8.171875 C 16.492188 -7.171875 15.570312 -6.398438 14.375 -5.859375 C 13.175781 -5.328125 11.757812 -5.0625 10.125 -5.0625 L 6.4375 -5.0625 L 6.4375 0 L 2.171875 0 L 2.171875 -18.375 Z M 9.890625 -8.53125 C 11.171875 -8.53125 12.144531 -8.804688 12.8125 -9.359375 C 13.476562 -9.910156 13.8125 -10.691406 13.8125 -11.703125 C 13.8125 -12.734375 13.476562 -13.523438 12.8125 -14.078125 C 12.144531 -14.628906 11.171875 -14.90625 9.890625 -14.90625 L 6.4375 -14.90625 L 6.4375 -8.53125 Z M 9.890625 -8.53125 "/></g></g></g><g fill="#d4ff00" fill-opacity="1"><g transform="translate(549.602063, 113.674068)"><g><path d="M 16.40625 -3.40625 L 16.40625 0 L 2.171875 0 L 2.171875 -18.375 L 16.0625 -18.375 L 16.0625 -14.96875 L 6.40625 -14.96875 L 6.40625 -10.96875 L 14.9375 -10.96875 L 14.9375 -7.671875 L 6.40625 -7.671875 L 6.40625 -3.40625 Z M 16.40625 -3.40625 "/></g></g></g><g fill="#d4ff00" fill-opacity="1"><g transform="translate(581.419955, 113.674068)"><g><path d="M 13.890625 0 L 10.34375 -5.125 L 6.4375 -5.125 L 6.4375 0 L 2.171875 0 L 2.171875 -18.375 L 10.125 -18.375 C 11.757812 -18.375 13.175781 -18.101562 14.375 -17.5625 C 15.570312 -17.019531 16.492188 -16.25 17.140625 -15.25 C 17.785156 -14.25 18.109375 -13.066406 18.109375 -11.703125 C 18.109375 -10.335938 17.78125 -9.160156 17.125 -8.171875 C 16.46875 -7.179688 15.535156 -6.425781 14.328125 -5.90625 L 18.453125 0 Z M 13.8125 -11.703125 C 13.8125 -12.734375 13.476562 -13.523438 12.8125 -14.078125 C 12.144531 -14.628906 11.171875 -14.90625 9.890625 -14.90625 L 6.4375 -14.90625 L 6.4375 -8.5 L 9.890625 -8.5 C 11.171875 -8.5 12.144531 -8.78125 12.8125 -9.34375 C 13.476562 -9.90625 13.8125 -10.691406 13.8125 -11.703125 Z M 13.8125 -11.703125 "/></g></g></g></svg>