<svg xmlns="http://www.w3.org/2000/svg" xmlns:xlink="http://www.w3.org/1999/xlink" width="500" zoomAndPan="magnify" viewBox="0 0 375 374.999991" height="500" preserveAspectRatio="xMidYMid meet" version="1.0"><defs><clipPath id="39d2c35110"><path d="M 5.25 5.25 L 369.75 5.25 L 369.75 369.75 L 5.25 369.75 Z M 5.25 5.25 " clip-rule="nonzero"/></clipPath></defs><path fill="#004aad" d="M 317.625 252.605469 L 228.738281 145.769531 C 227.542969 144.339844 225.773438 143.507812 223.90625 143.507812 C 222.039062 143.507812 220.265625 144.339844 219.074219 145.769531 L 200.371094 168.242188 L 155.519531 114.347656 C 153.128906 111.476562 148.246094 111.476562 145.859375 114.347656 L 56.972656 221.183594 C 54.753906 223.855469 55.117188 227.816406 57.78125 230.03125 C 58.964844 231.011719 60.390625 231.492188 61.808594 231.492188 C 63.613281 231.492188 65.398438 230.71875 66.644531 229.230469 L 150.699219 128.199219 L 192.199219 178.074219 L 130.179688 252.605469 C 127.953125 255.277344 128.324219 259.238281 130.988281 261.457031 C 132.164062 262.4375 133.589844 262.914062 135.003906 262.914062 C 136.808594 262.914062 138.59375 262.140625 139.839844 260.652344 L 223.90625 159.621094 L 307.96875 260.652344 C 310.183594 263.316406 314.144531 263.667969 316.816406 261.460938 C 319.480469 259.238281 319.851562 255.277344 317.625 252.605469 Z M 317.625 252.605469 " fill-opacity="1" fill-rule="nonzero"/><g clip-path="url(#39d2c35110)"><path fill="#004aad" d="M 187.5 5.25 C 87.003906 5.25 5.25 87.003906 5.25 187.5 C 5.25 287.988281 87.003906 369.75 187.5 369.75 C 287.996094 369.75 369.75 287.988281 369.75 187.5 C 369.75 87.003906 287.996094 5.25 187.5 5.25 Z M 187.5 357.179688 C 93.9375 357.179688 17.820312 281.0625 17.820312 187.5 C 17.820312 93.9375 93.9375 17.820312 187.5 17.820312 C 281.0625 17.820312 357.179688 93.9375 357.179688 187.5 C 357.179688 281.0625 281.0625 357.179688 187.5 357.179688 Z M 187.5 357.179688 " fill-opacity="1" fill-rule="nonzero"/></g></svg>