<svg xmlns="http://www.w3.org/2000/svg" xmlns:xlink="http://www.w3.org/1999/xlink" width="900" zoomAndPan="magnify" viewBox="0 0 675 149.999998" height="200" preserveAspectRatio="xMidYMid meet" version="1.0"><defs><g/><clipPath id="b64cee7b7c"><path d="M 6.835938 12.6875 L 138.835938 12.6875 L 138.835938 144.6875 L 6.835938 144.6875 Z M 6.835938 12.6875 " clip-rule="nonzero"/></clipPath></defs><path stroke-linecap="butt" transform="matrix(0.000000000000000046, -0.750253, 0.75, 0.000000000000000046, 149.492517, 144.973206)" fill="none" stroke-linejoin="miter" d="M 0.000732144 2.499561 L 184.94865 2.499561 " stroke="#191919" stroke-width="5" stroke-opacity="1" stroke-miterlimit="4"/><path fill="#004aad" d="M 119.960938 102.265625 L 87.769531 63.578125 C 87.339844 63.058594 86.695312 62.757812 86.019531 62.757812 C 85.34375 62.757812 84.703125 63.058594 84.269531 63.578125 L 77.496094 71.714844 L 61.253906 52.195312 C 60.390625 51.15625 58.621094 51.15625 57.757812 52.195312 L 25.566406 90.886719 C 24.761719 91.855469 24.894531 93.289062 25.859375 94.089844 C 26.289062 94.445312 26.804688 94.617188 27.320312 94.617188 C 27.972656 94.617188 28.617188 94.339844 29.070312 93.800781 L 59.507812 57.214844 L 74.539062 75.273438 L 52.078125 102.265625 C 51.273438 103.234375 51.40625 104.667969 52.371094 105.46875 C 52.796875 105.824219 53.3125 106 53.824219 106 C 54.480469 106 55.125 105.71875 55.578125 105.179688 L 86.019531 68.59375 L 116.460938 105.179688 C 117.265625 106.144531 118.699219 106.269531 119.667969 105.472656 C 120.632812 104.667969 120.765625 103.234375 119.960938 102.265625 Z M 119.960938 102.265625 " fill-opacity="1" fill-rule="nonzero"/><g clip-path="url(#b64cee7b7c)"><path fill="#004aad" d="M 72.835938 12.6875 C 36.441406 12.6875 6.835938 42.292969 6.835938 78.6875 C 6.835938 115.078125 36.441406 144.6875 72.835938 144.6875 C 109.230469 144.6875 138.835938 115.078125 138.835938 78.6875 C 138.835938 42.292969 109.230469 12.6875 72.835938 12.6875 Z M 72.835938 140.136719 C 38.953125 140.136719 11.386719 112.570312 11.386719 78.6875 C 11.386719 44.804688 38.953125 17.238281 72.835938 17.238281 C 106.71875 17.238281 134.285156 44.804688 134.285156 78.6875 C 134.285156 112.570312 106.71875 140.136719 72.835938 140.136719 Z M 72.835938 140.136719 " fill-opacity="1" fill-rule="nonzero"/></g><g fill="#191919" fill-opacity="1"><g transform="translate(163.746147, 90.295535)"><g><path d="M 19.015625 0.796875 L 16.46875 0.796875 L 6.0625 -32.484375 C 5.832031 -33.128906 5.582031 -33.800781 5.3125 -34.5 C 5.050781 -35.195312 4.703125 -35.847656 4.265625 -36.453125 C 3.835938 -37.054688 3.28125 -37.570312 2.59375 -38 C 1.914062 -38.4375 1.050781 -38.710938 0 -38.828125 L 0 -39.609375 L 12.28125 -39.609375 L 12.28125 -38.828125 C 11.5625 -38.742188 10.945312 -38.46875 10.4375 -38 C 9.925781 -37.53125 9.671875 -36.820312 9.671875 -35.875 C 9.671875 -35.3125 9.785156 -34.632812 10.015625 -33.84375 L 19.1875 -5.484375 L 26.03125 -26.546875 L 23.875 -33.78125 C 23.726562 -34.269531 23.550781 -34.785156 23.34375 -35.328125 C 23.132812 -35.878906 22.847656 -36.390625 22.484375 -36.859375 C 22.128906 -37.335938 21.648438 -37.753906 21.046875 -38.109375 C 20.441406 -38.472656 19.671875 -38.710938 18.734375 -38.828125 L 18.734375 -39.609375 L 31.1875 -39.609375 L 31.1875 -38.828125 C 30.207031 -38.828125 29.414062 -38.550781 28.8125 -38 C 28.207031 -37.457031 27.90625 -36.75 27.90625 -35.875 C 27.90625 -35.570312 27.941406 -35.210938 28.015625 -34.796875 C 28.085938 -34.390625 28.160156 -34.050781 28.234375 -33.78125 L 36.78125 -5.484375 L 45.84375 -33.328125 C 45.914062 -33.515625 46 -33.851562 46.09375 -34.34375 C 46.1875 -34.84375 46.234375 -35.1875 46.234375 -35.375 L 46.234375 -35.421875 C 46.234375 -35.578125 46.210938 -35.832031 46.171875 -36.1875 C 46.140625 -36.550781 46.019531 -36.910156 45.8125 -37.265625 C 45.601562 -37.617188 45.289062 -37.945312 44.875 -38.25 C 44.457031 -38.550781 43.875 -38.742188 43.125 -38.828125 L 43.125 -39.609375 L 52.6875 -39.609375 L 52.6875 -38.828125 C 51.9375 -38.671875 51.304688 -38.410156 50.796875 -38.046875 C 50.285156 -37.691406 49.859375 -37.269531 49.515625 -36.78125 C 49.179688 -36.289062 48.898438 -35.765625 48.671875 -35.203125 C 48.441406 -34.640625 48.234375 -34.070312 48.046875 -33.5 L 36.609375 0.796875 L 34.0625 0.796875 L 26.828125 -23.65625 Z M 19.015625 0.796875 "/></g></g></g><g fill="#191919" fill-opacity="1"><g transform="translate(223.166735, 90.295535)"><g><path d="M 15.734375 -39.609375 L 15.734375 -38.828125 C 14.671875 -38.710938 13.859375 -38.445312 13.296875 -38.03125 C 12.734375 -37.613281 12.3125 -37.128906 12.03125 -36.578125 C 11.75 -36.035156 11.578125 -35.453125 11.515625 -34.828125 C 11.460938 -34.210938 11.4375 -33.65625 11.4375 -33.15625 L 11.4375 -6.453125 C 11.4375 -5.921875 11.460938 -5.351562 11.515625 -4.75 C 11.578125 -4.144531 11.75 -3.566406 12.03125 -3.015625 C 12.3125 -2.472656 12.734375 -1.992188 13.296875 -1.578125 C 13.859375 -1.171875 14.671875 -0.910156 15.734375 -0.796875 L 15.734375 0 L 2.828125 0 L 2.828125 -0.796875 C 3.890625 -0.910156 4.703125 -1.171875 5.265625 -1.578125 C 5.828125 -1.992188 6.25 -2.472656 6.53125 -3.015625 C 6.820312 -3.566406 6.992188 -4.144531 7.046875 -4.75 C 7.097656 -5.351562 7.125 -5.921875 7.125 -6.453125 L 7.125 -33.15625 C 7.125 -33.65625 7.097656 -34.210938 7.046875 -34.828125 C 6.992188 -35.453125 6.820312 -36.035156 6.53125 -36.578125 C 6.25 -37.128906 5.828125 -37.613281 5.265625 -38.03125 C 4.703125 -38.445312 3.890625 -38.710938 2.828125 -38.828125 L 2.828125 -39.609375 Z M 15.734375 -39.609375 "/></g></g></g><g fill="#191919" fill-opacity="1"><g transform="translate(249.029586, 90.295535)"><g><path d="M 15.734375 -39.609375 L 15.734375 -38.828125 C 14.671875 -38.710938 13.859375 -38.445312 13.296875 -38.03125 C 12.734375 -37.613281 12.3125 -37.128906 12.03125 -36.578125 C 11.75 -36.035156 11.578125 -35.453125 11.515625 -34.828125 C 11.460938 -34.210938 11.4375 -33.65625 11.4375 -33.15625 L 11.4375 -6.453125 C 11.4375 -5.773438 11.453125 -5.148438 11.484375 -4.578125 C 11.523438 -4.015625 11.640625 -3.515625 11.828125 -3.078125 C 12.015625 -2.648438 12.332031 -2.3125 12.78125 -2.0625 C 13.238281 -1.820312 13.898438 -1.703125 14.765625 -1.703125 L 22.1875 -1.703125 C 22.675781 -1.703125 23.34375 -1.726562 24.1875 -1.78125 C 25.039062 -1.84375 25.9375 -2.070312 26.875 -2.46875 C 27.820312 -2.863281 28.765625 -3.484375 29.703125 -4.328125 C 30.648438 -5.179688 31.460938 -6.398438 32.140625 -7.984375 L 33.046875 -7.984375 L 31.6875 0 L 2.828125 0 L 2.828125 -0.796875 C 3.890625 -0.910156 4.703125 -1.171875 5.265625 -1.578125 C 5.828125 -1.992188 6.25 -2.472656 6.53125 -3.015625 C 6.820312 -3.566406 6.992188 -4.144531 7.046875 -4.75 C 7.097656 -5.351562 7.125 -5.921875 7.125 -6.453125 L 7.125 -33.15625 C 7.125 -33.65625 7.097656 -34.210938 7.046875 -34.828125 C 6.992188 -35.453125 6.820312 -36.035156 6.53125 -36.578125 C 6.25 -37.128906 5.828125 -37.613281 5.265625 -38.03125 C 4.703125 -38.445312 3.890625 -38.710938 2.828125 -38.828125 L 2.828125 -39.609375 Z M 15.734375 -39.609375 "/></g></g></g><g fill="#191919" fill-opacity="1"><g transform="translate(290.794155, 90.295535)"><g><path d="M 15.734375 -39.609375 L 15.734375 -38.828125 C 14.671875 -38.710938 13.859375 -38.445312 13.296875 -38.03125 C 12.734375 -37.613281 12.3125 -37.128906 12.03125 -36.578125 C 11.75 -36.035156 11.578125 -35.453125 11.515625 -34.828125 C 11.460938 -34.210938 11.4375 -33.65625 11.4375 -33.15625 L 11.4375 -6.453125 C 11.4375 -5.773438 11.453125 -5.148438 11.484375 -4.578125 C 11.523438 -4.015625 11.640625 -3.515625 11.828125 -3.078125 C 12.015625 -2.648438 12.332031 -2.3125 12.78125 -2.0625 C 13.238281 -1.820312 13.898438 -1.703125 14.765625 -1.703125 L 22.1875 -1.703125 C 22.675781 -1.703125 23.34375 -1.726562 24.1875 -1.78125 C 25.039062 -1.84375 25.9375 -2.070312 26.875 -2.46875 C 27.820312 -2.863281 28.765625 -3.484375 29.703125 -4.328125 C 30.648438 -5.179688 31.460938 -6.398438 32.140625 -7.984375 L 33.046875 -7.984375 L 31.6875 0 L 2.828125 0 L 2.828125 -0.796875 C 3.890625 -0.910156 4.703125 -1.171875 5.265625 -1.578125 C 5.828125 -1.992188 6.25 -2.472656 6.53125 -3.015625 C 6.820312 -3.566406 6.992188 -4.144531 7.046875 -4.75 C 7.097656 -5.351562 7.125 -5.921875 7.125 -6.453125 L 7.125 -33.15625 C 7.125 -33.65625 7.097656 -34.210938 7.046875 -34.828125 C 6.992188 -35.453125 6.820312 -36.035156 6.53125 -36.578125 C 6.25 -37.128906 5.828125 -37.613281 5.265625 -38.03125 C 4.703125 -38.445312 3.890625 -38.710938 2.828125 -38.828125 L 2.828125 -39.609375 Z M 15.734375 -39.609375 "/></g></g></g><g fill="#191919" fill-opacity="1"><g transform="translate(332.558725, 90.295535)"><g><path d="M 15.734375 -39.609375 L 15.734375 -38.828125 C 14.671875 -38.710938 13.859375 -38.445312 13.296875 -38.03125 C 12.734375 -37.613281 12.3125 -37.128906 12.03125 -36.578125 C 11.75 -36.035156 11.578125 -35.453125 11.515625 -34.828125 C 11.460938 -34.210938 11.4375 -33.65625 11.4375 -33.15625 L 11.4375 -6.453125 C 11.4375 -5.921875 11.460938 -5.351562 11.515625 -4.75 C 11.578125 -4.144531 11.75 -3.566406 12.03125 -3.015625 C 12.3125 -2.472656 12.734375 -1.992188 13.296875 -1.578125 C 13.859375 -1.171875 14.671875 -0.910156 15.734375 -0.796875 L 15.734375 0 L 2.828125 0 L 2.828125 -0.796875 C 3.890625 -0.910156 4.703125 -1.171875 5.265625 -1.578125 C 5.828125 -1.992188 6.25 -2.472656 6.53125 -3.015625 C 6.820312 -3.566406 6.992188 -4.144531 7.046875 -4.75 C 7.097656 -5.351562 7.125 -5.921875 7.125 -6.453125 L 7.125 -33.15625 C 7.125 -33.65625 7.097656 -34.210938 7.046875 -34.828125 C 6.992188 -35.453125 6.820312 -36.035156 6.53125 -36.578125 C 6.25 -37.128906 5.828125 -37.613281 5.265625 -38.03125 C 4.703125 -38.445312 3.890625 -38.710938 2.828125 -38.828125 L 2.828125 -39.609375 Z M 15.734375 -39.609375 "/></g></g></g><g fill="#191919" fill-opacity="1"><g transform="translate(358.421581, 90.295535)"><g><path d="M 31.296875 -6 C 31.335938 -5.84375 31.457031 -5.488281 31.65625 -4.9375 C 31.863281 -4.394531 32.1875 -3.820312 32.625 -3.21875 C 33.0625 -2.625 33.628906 -2.078125 34.328125 -1.578125 C 35.023438 -1.085938 35.882812 -0.828125 36.90625 -0.796875 L 36.90625 0 L 23.265625 0 L 23.265625 -0.796875 L 23.9375 -0.796875 C 24.914062 -0.796875 25.695312 -1.066406 26.28125 -1.609375 C 26.875 -2.160156 27.171875 -2.847656 27.171875 -3.671875 C 27.171875 -3.941406 27.117188 -4.242188 27.015625 -4.578125 C 26.921875 -4.921875 26.835938 -5.207031 26.765625 -5.4375 L 24.78125 -12.21875 L 9.28125 -12.21875 L 7.1875 -5.609375 C 7.144531 -5.523438 7.085938 -5.304688 7.015625 -4.953125 C 6.941406 -4.597656 6.90625 -4.269531 6.90625 -3.96875 C 6.90625 -3.28125 7.117188 -2.578125 7.546875 -1.859375 C 7.984375 -1.148438 8.804688 -0.796875 10.015625 -0.796875 L 10.015625 0 L -0.5625 0 L -0.5625 -0.796875 C 0.457031 -0.910156 1.304688 -1.171875 1.984375 -1.578125 C 2.660156 -1.992188 3.207031 -2.457031 3.625 -2.96875 C 4.039062 -3.476562 4.347656 -3.957031 4.546875 -4.40625 C 4.753906 -4.863281 4.898438 -5.1875 4.984375 -5.375 L 14.484375 -31.921875 C 14.554688 -32.109375 14.640625 -32.378906 14.734375 -32.734375 C 14.835938 -33.097656 14.890625 -33.390625 14.890625 -33.609375 C 14.890625 -34.253906 14.671875 -34.707031 14.234375 -34.96875 C 13.796875 -35.238281 13.273438 -35.390625 12.671875 -35.421875 L 11.65625 -35.421875 L 11.65625 -36.328125 C 13.238281 -36.515625 14.554688 -37.0625 15.609375 -37.96875 C 16.671875 -38.875 17.375 -40.046875 17.71875 -41.484375 L 20.203125 -41.484375 Z M 9.90625 -13.921875 L 24.109375 -13.921875 L 17.546875 -35.203125 Z M 9.90625 -13.921875 "/></g></g></g><g fill="#191919" fill-opacity="1"><g transform="translate(401.487733, 90.295535)"><g><path d="M 26.421875 -11.09375 L 37.46875 -39.609375 L 46.640625 -39.609375 L 46.640625 -38.828125 C 45.804688 -38.742188 45.132812 -38.597656 44.625 -38.390625 C 44.113281 -38.191406 43.71875 -37.941406 43.4375 -37.640625 C 43.15625 -37.335938 42.96875 -37.003906 42.875 -36.640625 C 42.78125 -36.285156 42.734375 -35.921875 42.734375 -35.546875 C 42.734375 -35.242188 42.75 -34.957031 42.78125 -34.6875 C 42.820312 -34.425781 42.859375 -34.203125 42.890625 -34.015625 L 47.59375 -5.71875 C 47.820312 -4.320312 48.394531 -3.179688 49.3125 -2.296875 C 50.238281 -1.410156 51.382812 -0.910156 52.75 -0.796875 L 52.75 0 L 38.703125 0 L 38.703125 -0.796875 L 39.21875 -0.734375 C 40.195312 -0.734375 41.082031 -1.023438 41.875 -1.609375 C 42.664062 -2.191406 43.0625 -3.050781 43.0625 -4.1875 C 43.0625 -4.5625 43.003906 -5.03125 42.890625 -5.59375 C 42.785156 -6.164062 42.691406 -6.675781 42.609375 -7.125 L 38.03125 -34.96875 L 26.03125 -4.296875 L 24.328125 -4.296875 L 13.359375 -34.015625 L 7.8125 -6.734375 C 7.738281 -6.472656 7.671875 -6.066406 7.609375 -5.515625 C 7.554688 -4.972656 7.53125 -4.566406 7.53125 -4.296875 C 7.53125 -3.660156 7.679688 -3.125 7.984375 -2.6875 C 8.285156 -2.25 8.660156 -1.898438 9.109375 -1.640625 C 9.566406 -1.378906 10.039062 -1.179688 10.53125 -1.046875 C 11.019531 -0.910156 11.472656 -0.828125 11.890625 -0.796875 L 11.890625 0 L 0.96875 0 L 0.96875 -0.796875 C 2.394531 -0.867188 3.484375 -1.359375 4.234375 -2.265625 C 4.992188 -3.171875 5.523438 -4.414062 5.828125 -6 L 11.203125 -32.765625 C 11.273438 -33.179688 11.320312 -33.539062 11.34375 -33.84375 C 11.363281 -34.144531 11.375 -34.503906 11.375 -34.921875 C 11.375 -35.109375 11.34375 -35.410156 11.28125 -35.828125 C 11.226562 -36.242188 11.078125 -36.65625 10.828125 -37.0625 C 10.585938 -37.476562 10.191406 -37.851562 9.640625 -38.1875 C 9.097656 -38.53125 8.316406 -38.742188 7.296875 -38.828125 L 7.296875 -39.609375 L 16.53125 -39.609375 Z M 26.421875 -11.09375 "/></g></g></g><g fill="#191919" fill-opacity="1"><g transform="translate(462.492841, 90.295535)"><g/></g></g><g fill="#191919" fill-opacity="1"><g transform="translate(482.979663, 90.295535)"><g><path d="M 32.265625 -39.609375 L 33.5 -31.859375 L 32.265625 -31.859375 C 32.066406 -32.503906 31.757812 -33.175781 31.34375 -33.875 C 30.9375 -34.570312 30.445312 -35.179688 29.875 -35.703125 C 29.238281 -36.304688 28.410156 -36.828125 27.390625 -37.265625 C 26.367188 -37.703125 25.253906 -37.921875 24.046875 -37.921875 L 15 -37.921875 C 13.90625 -37.921875 13.035156 -37.609375 12.390625 -36.984375 C 11.753906 -36.359375 11.4375 -35.441406 11.4375 -34.234375 L 11.4375 -22.46875 L 21.28125 -22.46875 C 21.8125 -22.46875 22.453125 -22.550781 23.203125 -22.71875 C 23.953125 -22.894531 24.578125 -23.359375 25.078125 -24.109375 C 25.296875 -24.410156 25.441406 -24.75 25.515625 -25.125 C 25.597656 -25.5 25.640625 -25.859375 25.640625 -26.203125 L 25.640625 -26.546875 L 26.546875 -26.546875 L 26.546875 -16.53125 L 25.640625 -16.53125 L 25.6875 -17.03125 C 25.6875 -17.789062 25.484375 -18.488281 25.078125 -19.125 C 24.578125 -19.882812 23.953125 -20.347656 23.203125 -20.515625 C 22.453125 -20.679688 21.8125 -20.765625 21.28125 -20.765625 L 11.4375 -20.765625 L 11.4375 -6.453125 C 11.4375 -5.921875 11.460938 -5.351562 11.515625 -4.75 C 11.578125 -4.144531 11.75 -3.566406 12.03125 -3.015625 C 12.3125 -2.472656 12.734375 -1.992188 13.296875 -1.578125 C 13.859375 -1.171875 14.671875 -0.910156 15.734375 -0.796875 L 15.734375 0 L 2.828125 0 L 2.828125 -0.796875 C 3.890625 -0.867188 4.703125 -1.101562 5.265625 -1.5 C 5.828125 -1.894531 6.25 -2.363281 6.53125 -2.90625 C 6.820312 -3.457031 6.992188 -4.046875 7.046875 -4.671875 C 7.097656 -5.296875 7.125 -5.890625 7.125 -6.453125 L 7.125 -33.15625 C 7.125 -33.6875 7.097656 -34.265625 7.046875 -34.890625 C 6.992188 -35.515625 6.832031 -36.097656 6.5625 -36.640625 C 6.300781 -37.191406 5.878906 -37.664062 5.296875 -38.0625 C 4.710938 -38.457031 3.890625 -38.710938 2.828125 -38.828125 L 2.828125 -39.609375 Z M 32.265625 -39.609375 "/></g></g></g><g fill="#191919" fill-opacity="1"><g transform="translate(524.065164, 90.295535)"><g><path d="M 15.734375 -39.609375 L 15.734375 -38.828125 C 14.671875 -38.710938 13.859375 -38.445312 13.296875 -38.03125 C 12.734375 -37.613281 12.3125 -37.128906 12.03125 -36.578125 C 11.75 -36.035156 11.578125 -35.453125 11.515625 -34.828125 C 11.460938 -34.210938 11.4375 -33.65625 11.4375 -33.15625 L 11.4375 -6.453125 C 11.4375 -5.921875 11.460938 -5.351562 11.515625 -4.75 C 11.578125 -4.144531 11.75 -3.566406 12.03125 -3.015625 C 12.3125 -2.472656 12.734375 -1.992188 13.296875 -1.578125 C 13.859375 -1.171875 14.671875 -0.910156 15.734375 -0.796875 L 15.734375 0 L 2.828125 0 L 2.828125 -0.796875 C 3.890625 -0.910156 4.703125 -1.171875 5.265625 -1.578125 C 5.828125 -1.992188 6.25 -2.472656 6.53125 -3.015625 C 6.820312 -3.566406 6.992188 -4.144531 7.046875 -4.75 C 7.097656 -5.351562 7.125 -5.921875 7.125 -6.453125 L 7.125 -33.15625 C 7.125 -33.65625 7.097656 -34.210938 7.046875 -34.828125 C 6.992188 -35.453125 6.820312 -36.035156 6.53125 -36.578125 C 6.25 -37.128906 5.828125 -37.613281 5.265625 -38.03125 C 4.703125 -38.445312 3.890625 -38.710938 2.828125 -38.828125 L 2.828125 -39.609375 Z M 15.734375 -39.609375 "/></g></g></g><g fill="#191919" fill-opacity="1"><g transform="translate(549.928008, 90.295535)"><g><path d="M 31.6875 -39.609375 L 32.9375 -31.859375 L 31.6875 -31.859375 C 31.46875 -32.390625 31.140625 -33.03125 30.703125 -33.78125 C 30.265625 -34.539062 29.765625 -35.179688 29.203125 -35.703125 C 28.554688 -36.304688 27.742188 -36.828125 26.765625 -37.265625 C 25.785156 -37.703125 24.691406 -37.921875 23.484375 -37.921875 L 15 -37.921875 C 13.90625 -37.921875 13.035156 -37.609375 12.390625 -36.984375 C 11.753906 -36.359375 11.4375 -35.441406 11.4375 -34.234375 L 11.4375 -22.46875 L 22.359375 -22.46875 C 22.878906 -22.46875 23.515625 -22.550781 24.265625 -22.71875 C 25.023438 -22.894531 25.648438 -23.359375 26.140625 -24.109375 C 26.367188 -24.410156 26.519531 -24.75 26.59375 -25.125 C 26.675781 -25.5 26.71875 -25.859375 26.71875 -26.203125 L 26.71875 -26.546875 L 27.625 -26.546875 L 27.625 -16.6875 L 26.71875 -16.6875 L 26.71875 -17.03125 C 26.71875 -17.375 26.675781 -17.734375 26.59375 -18.109375 C 26.519531 -18.484375 26.367188 -18.820312 26.140625 -19.125 C 25.648438 -19.882812 25.023438 -20.347656 24.265625 -20.515625 C 23.515625 -20.679688 22.878906 -20.765625 22.359375 -20.765625 L 11.4375 -20.765625 L 11.4375 -5.203125 C 11.4375 -5.015625 11.460938 -4.734375 11.515625 -4.359375 C 11.578125 -3.984375 11.726562 -3.597656 11.96875 -3.203125 C 12.21875 -2.804688 12.601562 -2.457031 13.125 -2.15625 C 13.65625 -1.851562 14.410156 -1.703125 15.390625 -1.703125 L 23.4375 -1.703125 C 24 -1.703125 24.691406 -1.726562 25.515625 -1.78125 C 26.347656 -1.84375 27.226562 -2.070312 28.15625 -2.46875 C 29.082031 -2.863281 30 -3.484375 30.90625 -4.328125 C 31.8125 -5.179688 32.640625 -6.398438 33.390625 -7.984375 L 34.296875 -7.984375 L 32.9375 0 L 2.828125 0 L 2.828125 -0.796875 C 3.890625 -0.910156 4.710938 -1.164062 5.296875 -1.5625 C 5.878906 -1.957031 6.300781 -2.425781 6.5625 -2.96875 C 6.832031 -3.519531 6.992188 -4.101562 7.046875 -4.71875 C 7.097656 -5.34375 7.125 -5.921875 7.125 -6.453125 L 7.125 -33.15625 C 7.125 -33.6875 7.097656 -34.265625 7.046875 -34.890625 C 6.992188 -35.515625 6.832031 -36.097656 6.5625 -36.640625 C 6.300781 -37.191406 5.878906 -37.664062 5.296875 -38.0625 C 4.710938 -38.457031 3.890625 -38.710938 2.828125 -38.828125 L 2.828125 -39.609375 Z M 31.6875 -39.609375 "/></g></g></g><g fill="#191919" fill-opacity="1"><g transform="translate(593.786389, 90.295535)"><g><path d="M 15.734375 -39.609375 L 15.734375 -38.828125 C 14.671875 -38.710938 13.859375 -38.445312 13.296875 -38.03125 C 12.734375 -37.613281 12.3125 -37.128906 12.03125 -36.578125 C 11.75 -36.035156 11.578125 -35.453125 11.515625 -34.828125 C 11.460938 -34.210938 11.4375 -33.65625 11.4375 -33.15625 L 11.4375 -6.453125 C 11.4375 -5.773438 11.453125 -5.148438 11.484375 -4.578125 C 11.523438 -4.015625 11.640625 -3.515625 11.828125 -3.078125 C 12.015625 -2.648438 12.332031 -2.3125 12.78125 -2.0625 C 13.238281 -1.820312 13.898438 -1.703125 14.765625 -1.703125 L 22.1875 -1.703125 C 22.675781 -1.703125 23.34375 -1.726562 24.1875 -1.78125 C 25.039062 -1.84375 25.9375 -2.070312 26.875 -2.46875 C 27.820312 -2.863281 28.765625 -3.484375 29.703125 -4.328125 C 30.648438 -5.179688 31.460938 -6.398438 32.140625 -7.984375 L 33.046875 -7.984375 L 31.6875 0 L 2.828125 0 L 2.828125 -0.796875 C 3.890625 -0.910156 4.703125 -1.171875 5.265625 -1.578125 C 5.828125 -1.992188 6.25 -2.472656 6.53125 -3.015625 C 6.820312 -3.566406 6.992188 -4.144531 7.046875 -4.75 C 7.097656 -5.351562 7.125 -5.921875 7.125 -6.453125 L 7.125 -33.15625 C 7.125 -33.65625 7.097656 -34.210938 7.046875 -34.828125 C 6.992188 -35.453125 6.820312 -36.035156 6.53125 -36.578125 C 6.25 -37.128906 5.828125 -37.613281 5.265625 -38.03125 C 4.703125 -38.445312 3.890625 -38.710938 2.828125 -38.828125 L 2.828125 -39.609375 Z M 15.734375 -39.609375 "/></g></g></g><g fill="#191919" fill-opacity="1"><g transform="translate(635.550958, 90.295535)"><g><path d="M 18.796875 -39.609375 C 19.503906 -39.609375 20.394531 -39.570312 21.46875 -39.5 C 22.550781 -39.425781 23.710938 -39.238281 24.953125 -38.9375 C 26.203125 -38.632812 27.492188 -38.179688 28.828125 -37.578125 C 30.171875 -36.972656 31.46875 -36.160156 32.71875 -35.140625 C 34.863281 -33.410156 36.539062 -31.195312 37.75 -28.5 C 38.957031 -25.800781 39.5625 -22.695312 39.5625 -19.1875 C 39.5625 -16.65625 39.144531 -14.320312 38.3125 -12.1875 C 37.476562 -10.0625 36.382812 -8.207031 35.03125 -6.625 C 33.820312 -5.1875 32.535156 -4.035156 31.171875 -3.171875 C 29.816406 -2.304688 28.421875 -1.632812 26.984375 -1.15625 C 25.554688 -0.6875 24.132812 -0.375 22.71875 -0.21875 C 21.300781 -0.0703125 19.9375 0 18.625 0 L 2.828125 0 L 2.828125 -0.796875 C 3.890625 -0.910156 4.710938 -1.164062 5.296875 -1.5625 C 5.878906 -1.957031 6.300781 -2.425781 6.5625 -2.96875 C 6.832031 -3.519531 6.992188 -4.101562 7.046875 -4.71875 C 7.097656 -5.34375 7.125 -5.921875 7.125 -6.453125 L 7.125 -33.15625 C 7.125 -33.65625 7.097656 -34.210938 7.046875 -34.828125 C 6.992188 -35.453125 6.820312 -36.035156 6.53125 -36.578125 C 6.25 -37.128906 5.828125 -37.613281 5.265625 -38.03125 C 4.703125 -38.445312 3.890625 -38.710938 2.828125 -38.828125 L 2.828125 -39.609375 Z M 11.4375 -6.171875 C 11.4375 -5.078125 11.566406 -4.226562 11.828125 -3.625 C 12.085938 -3.019531 12.4375 -2.578125 12.875 -2.296875 C 13.3125 -2.015625 13.8125 -1.84375 14.375 -1.78125 C 14.9375 -1.726562 15.503906 -1.703125 16.078125 -1.703125 L 20.890625 -1.703125 C 21.753906 -1.703125 22.640625 -1.832031 23.546875 -2.09375 C 24.453125 -2.351562 25.328125 -2.707031 26.171875 -3.15625 C 27.023438 -3.613281 27.816406 -4.132812 28.546875 -4.71875 C 29.285156 -5.3125 29.921875 -5.945312 30.453125 -6.625 C 31.359375 -7.75 32.070312 -8.988281 32.59375 -10.34375 C 33.125 -11.707031 33.507812 -13.039062 33.75 -14.34375 C 34 -15.644531 34.160156 -16.859375 34.234375 -17.984375 C 34.316406 -19.117188 34.359375 -20.007812 34.359375 -20.65625 C 34.359375 -22.882812 34.128906 -24.816406 33.671875 -26.453125 C 33.222656 -28.097656 32.65625 -29.515625 31.96875 -30.703125 C 31.289062 -31.890625 30.523438 -32.867188 29.671875 -33.640625 C 28.828125 -34.421875 28.007812 -35.054688 27.21875 -35.546875 C 25.9375 -36.296875 24.507812 -36.878906 22.9375 -37.296875 C 21.375 -37.710938 19.9375 -37.921875 18.625 -37.921875 L 15.796875 -37.921875 C 14.691406 -37.921875 13.847656 -37.796875 13.265625 -37.546875 C 12.679688 -37.304688 12.257812 -37.003906 12 -36.640625 C 11.738281 -36.285156 11.578125 -35.898438 11.515625 -35.484375 C 11.460938 -35.066406 11.4375 -34.671875 11.4375 -34.296875 Z M 11.4375 -6.171875 "/></g></g></g><g fill="#004aad" fill-opacity="1"><g transform="translate(199.625999, 114.875539)"><g><path d="M 30 -18.40625 L 23.984375 0 L 19.40625 0 L 15.359375 -12.46875 L 11.171875 0 L 6.625 0 L 0.578125 -18.40625 L 5 -18.40625 L 9.15625 -5.46875 L 13.484375 -18.40625 L 17.4375 -18.40625 L 21.640625 -5.359375 L 25.921875 -18.40625 Z M 30 -18.40625 "/></g></g></g><g fill="#004aad" fill-opacity="1"><g transform="translate(244.423894, 114.875539)"><g><path d="M 16.4375 -3.421875 L 16.4375 0 L 2.1875 0 L 2.1875 -18.40625 L 16.09375 -18.40625 L 16.09375 -14.984375 L 6.421875 -14.984375 L 6.421875 -10.984375 L 14.96875 -10.984375 L 14.96875 -7.671875 L 6.421875 -7.671875 L 6.421875 -3.421875 Z M 16.4375 -3.421875 "/></g></g></g><g fill="#004aad" fill-opacity="1"><g transform="translate(276.289519, 114.875539)"><g><path d="M 15.703125 -9.578125 C 16.753906 -9.242188 17.578125 -8.6875 18.171875 -7.90625 C 18.765625 -7.125 19.0625 -6.160156 19.0625 -5.015625 C 19.0625 -3.410156 18.4375 -2.171875 17.1875 -1.296875 C 15.9375 -0.429688 14.109375 0 11.703125 0 L 2.1875 0 L 2.1875 -18.40625 L 11.171875 -18.40625 C 13.421875 -18.40625 15.144531 -17.972656 16.34375 -17.109375 C 17.539062 -16.253906 18.140625 -15.09375 18.140625 -13.625 C 18.140625 -12.726562 17.925781 -11.925781 17.5 -11.21875 C 17.070312 -10.519531 16.472656 -9.972656 15.703125 -9.578125 Z M 6.421875 -15.203125 L 6.421875 -10.859375 L 10.65625 -10.859375 C 11.707031 -10.859375 12.503906 -11.039062 13.046875 -11.40625 C 13.585938 -11.78125 13.859375 -12.328125 13.859375 -13.046875 C 13.859375 -13.765625 13.585938 -14.300781 13.046875 -14.65625 C 12.503906 -15.019531 11.707031 -15.203125 10.65625 -15.203125 Z M 11.390625 -3.203125 C 12.503906 -3.203125 13.347656 -3.382812 13.921875 -3.75 C 14.492188 -4.125 14.78125 -4.695312 14.78125 -5.46875 C 14.78125 -6.988281 13.648438 -7.75 11.390625 -7.75 L 6.421875 -7.75 L 6.421875 -3.203125 Z M 11.390625 -3.203125 "/></g></g></g><g fill="#004aad" fill-opacity="1"><g transform="translate(310.625947, 114.875539)"><g/></g></g><g fill="#004aad" fill-opacity="1"><g transform="translate(332.292941, 114.875539)"><g><path d="M 2.1875 -18.40625 L 10.546875 -18.40625 C 12.546875 -18.40625 14.3125 -18.023438 15.84375 -17.265625 C 17.375 -16.503906 18.566406 -15.429688 19.421875 -14.046875 C 20.273438 -12.660156 20.703125 -11.046875 20.703125 -9.203125 C 20.703125 -7.359375 20.273438 -5.742188 19.421875 -4.359375 C 18.566406 -2.972656 17.375 -1.898438 15.84375 -1.140625 C 14.3125 -0.378906 12.546875 0 10.546875 0 L 2.1875 0 Z M 10.328125 -3.5 C 12.171875 -3.5 13.640625 -4.007812 14.734375 -5.03125 C 15.835938 -6.0625 16.390625 -7.453125 16.390625 -9.203125 C 16.390625 -10.953125 15.835938 -12.335938 14.734375 -13.359375 C 13.640625 -14.390625 12.171875 -14.90625 10.328125 -14.90625 L 6.4375 -14.90625 L 6.4375 -3.5 Z M 10.328125 -3.5 "/></g></g></g><g fill="#004aad" fill-opacity="1"><g transform="translate(368.232755, 114.875539)"><g><path d="M 16.4375 -3.421875 L 16.4375 0 L 2.1875 0 L 2.1875 -18.40625 L 16.09375 -18.40625 L 16.09375 -14.984375 L 6.421875 -14.984375 L 6.421875 -10.984375 L 14.96875 -10.984375 L 14.96875 -7.671875 L 6.421875 -7.671875 L 6.421875 -3.421875 Z M 16.4375 -3.421875 "/></g></g></g><g fill="#004aad" fill-opacity="1"><g transform="translate(400.098369, 114.875539)"><g><path d="M 19.875 -18.40625 L 11.90625 0 L 7.703125 0 L -0.234375 -18.40625 L 4.359375 -18.40625 L 9.96875 -5.265625 L 15.640625 -18.40625 Z M 19.875 -18.40625 "/></g></g></g><g fill="#004aad" fill-opacity="1"><g transform="translate(433.935388, 114.875539)"><g><path d="M 16.4375 -3.421875 L 16.4375 0 L 2.1875 0 L 2.1875 -18.40625 L 16.09375 -18.40625 L 16.09375 -14.984375 L 6.421875 -14.984375 L 6.421875 -10.984375 L 14.96875 -10.984375 L 14.96875 -7.671875 L 6.421875 -7.671875 L 6.421875 -3.421875 Z M 16.4375 -3.421875 "/></g></g></g><g fill="#004aad" fill-opacity="1"><g transform="translate(465.801002, 114.875539)"><g><path d="M 2.1875 -18.40625 L 6.4375 -18.40625 L 6.4375 -3.46875 L 15.671875 -3.46875 L 15.671875 0 L 2.1875 0 Z M 2.1875 -18.40625 "/></g></g></g><g fill="#004aad" fill-opacity="1"><g transform="translate(495.905507, 114.875539)"><g><path d="M 11.09375 0.3125 C 9.1875 0.3125 7.460938 -0.0976562 5.921875 -0.921875 C 4.390625 -1.742188 3.191406 -2.878906 2.328125 -4.328125 C 1.460938 -5.773438 1.03125 -7.398438 1.03125 -9.203125 C 1.03125 -11.003906 1.460938 -12.628906 2.328125 -14.078125 C 3.191406 -15.523438 4.390625 -16.660156 5.921875 -17.484375 C 7.460938 -18.304688 9.1875 -18.71875 11.09375 -18.71875 C 13.007812 -18.71875 14.726562 -18.304688 16.25 -17.484375 C 17.78125 -16.660156 18.984375 -15.523438 19.859375 -14.078125 C 20.734375 -12.628906 21.171875 -11.003906 21.171875 -9.203125 C 21.171875 -7.398438 20.734375 -5.773438 19.859375 -4.328125 C 18.984375 -2.878906 17.78125 -1.742188 16.25 -0.921875 C 14.726562 -0.0976562 13.007812 0.3125 11.09375 0.3125 Z M 11.09375 -3.3125 C 12.1875 -3.3125 13.171875 -3.5625 14.046875 -4.0625 C 14.921875 -4.5625 15.609375 -5.257812 16.109375 -6.15625 C 16.609375 -7.050781 16.859375 -8.066406 16.859375 -9.203125 C 16.859375 -10.335938 16.609375 -11.351562 16.109375 -12.25 C 15.609375 -13.144531 14.921875 -13.84375 14.046875 -14.34375 C 13.171875 -14.84375 12.1875 -15.09375 11.09375 -15.09375 C 10.007812 -15.09375 9.03125 -14.84375 8.15625 -14.34375 C 7.28125 -13.84375 6.59375 -13.144531 6.09375 -12.25 C 5.59375 -11.351562 5.34375 -10.335938 5.34375 -9.203125 C 5.34375 -8.066406 5.59375 -7.050781 6.09375 -6.15625 C 6.59375 -5.257812 7.28125 -4.5625 8.15625 -4.0625 C 9.03125 -3.5625 10.007812 -3.3125 11.09375 -3.3125 Z M 11.09375 -3.3125 "/></g></g></g><g fill="#004aad" fill-opacity="1"><g transform="translate(532.318454, 114.875539)"><g><path d="M 10.15625 -18.40625 C 11.78125 -18.40625 13.191406 -18.132812 14.390625 -17.59375 C 15.597656 -17.050781 16.523438 -16.28125 17.171875 -15.28125 C 17.816406 -14.28125 18.140625 -13.097656 18.140625 -11.734375 C 18.140625 -10.378906 17.816406 -9.195312 17.171875 -8.1875 C 16.523438 -7.175781 15.597656 -6.40625 14.390625 -5.875 C 13.191406 -5.34375 11.78125 -5.078125 10.15625 -5.078125 L 6.4375 -5.078125 L 6.4375 0 L 2.1875 0 L 2.1875 -18.40625 Z M 9.90625 -8.546875 C 11.1875 -8.546875 12.160156 -8.820312 12.828125 -9.375 C 13.492188 -9.925781 13.828125 -10.710938 13.828125 -11.734375 C 13.828125 -12.765625 13.492188 -13.554688 12.828125 -14.109375 C 12.160156 -14.660156 11.1875 -14.9375 9.90625 -14.9375 L 6.4375 -14.9375 L 6.4375 -8.546875 Z M 9.90625 -8.546875 "/></g></g></g><g fill="#004aad" fill-opacity="1"><g transform="translate(565.787476, 114.875539)"><g><path d="M 16.4375 -3.421875 L 16.4375 0 L 2.1875 0 L 2.1875 -18.40625 L 16.09375 -18.40625 L 16.09375 -14.984375 L 6.421875 -14.984375 L 6.421875 -10.984375 L 14.96875 -10.984375 L 14.96875 -7.671875 L 6.421875 -7.671875 L 6.421875 -3.421875 Z M 16.4375 -3.421875 "/></g></g></g><g fill="#004aad" fill-opacity="1"><g transform="translate(597.653091, 114.875539)"><g><path d="M 13.90625 0 L 10.359375 -5.125 L 6.4375 -5.125 L 6.4375 0 L 2.1875 0 L 2.1875 -18.40625 L 10.15625 -18.40625 C 11.78125 -18.40625 13.191406 -18.132812 14.390625 -17.59375 C 15.597656 -17.050781 16.523438 -16.28125 17.171875 -15.28125 C 17.816406 -14.28125 18.140625 -13.097656 18.140625 -11.734375 C 18.140625 -10.359375 17.8125 -9.175781 17.15625 -8.1875 C 16.5 -7.195312 15.566406 -6.441406 14.359375 -5.921875 L 18.484375 0 Z M 13.828125 -11.734375 C 13.828125 -12.765625 13.492188 -13.554688 12.828125 -14.109375 C 12.160156 -14.660156 11.1875 -14.9375 9.90625 -14.9375 L 6.4375 -14.9375 L 6.4375 -8.515625 L 9.90625 -8.515625 C 11.1875 -8.515625 12.160156 -8.796875 12.828125 -9.359375 C 13.492188 -9.921875 13.828125 -10.710938 13.828125 -11.734375 Z M 13.828125 -11.734375 "/></g></g></g></svg>