<svg xmlns="http://www.w3.org/2000/svg" xmlns:xlink="http://www.w3.org/1999/xlink" width="500" zoomAndPan="magnify" viewBox="0 0 375 374.999991" height="500" preserveAspectRatio="xMidYMid meet" version="1.0"><defs><clipPath id="6990b18114"><path d="M 5.207031 5.785156 L 368.957031 5.785156 L 368.957031 369.535156 L 5.207031 369.535156 Z M 5.207031 5.785156 " clip-rule="nonzero"/></clipPath></defs><path fill="#ffffff" d="M 316.941406 252.636719 L 228.238281 146.019531 C 227.046875 144.589844 225.277344 143.761719 223.414062 143.761719 C 221.550781 143.761719 219.785156 144.589844 218.589844 146.019531 L 199.925781 168.445312 L 155.167969 114.660156 C 152.785156 111.796875 147.910156 111.796875 145.527344 114.660156 L 56.824219 221.277344 C 54.609375 223.941406 54.972656 227.894531 57.632812 230.109375 C 58.8125 231.085938 60.234375 231.5625 61.652344 231.5625 C 63.453125 231.5625 65.234375 230.792969 66.476562 229.304688 L 150.355469 128.484375 L 191.773438 178.253906 L 129.878906 252.636719 C 127.660156 255.300781 128.03125 259.25 130.691406 261.464844 C 131.863281 262.445312 133.285156 262.921875 134.695312 262.921875 C 136.496094 262.921875 138.277344 262.148438 139.519531 260.664062 L 223.414062 159.839844 L 307.300781 260.664062 C 309.515625 263.320312 313.46875 263.671875 316.132812 261.472656 C 318.792969 259.25 319.164062 255.300781 316.941406 252.636719 Z M 316.941406 252.636719 " fill-opacity="1" fill-rule="nonzero"/><g clip-path="url(#6990b18114)"><path fill="#ffffff" d="M 187.082031 5.785156 C 86.796875 5.785156 5.207031 87.375 5.207031 187.660156 C 5.207031 287.945312 86.796875 369.535156 187.082031 369.535156 C 287.371094 369.535156 368.957031 287.945312 368.957031 187.660156 C 368.957031 87.375 287.371094 5.785156 187.082031 5.785156 Z M 187.082031 356.992188 C 93.710938 356.992188 17.75 281.03125 17.75 187.660156 C 17.75 94.292969 93.710938 18.332031 187.082031 18.332031 C 280.453125 18.332031 356.414062 94.292969 356.414062 187.660156 C 356.414062 281.03125 280.453125 356.992188 187.082031 356.992188 Z M 187.082031 356.992188 " fill-opacity="1" fill-rule="nonzero"/></g></svg>